<svg width="1600" height="900" viewBox="0 0 1600 900" fill="none" xmlns="http://www.w3.org/2000/svg">
  <rect width="1600" height="900" fill="#0A0A0A"/>
  <rect width="1600" height="900" fill="url(#g)"/>
  <rect x="110" y="100" width="1380" height="700" rx="32" fill="#120909" stroke="#ff3b3b" stroke-opacity=".25" stroke-width="2"/>
  <rect x="170" y="160" width="420" height="560" rx="28" fill="#181010"/>
  <rect x="640" y="160" width="790" height="180" rx="28" fill="#181010"/>
  <rect x="640" y="380" width="380" height="340" rx="28" fill="#181010"/>
  <rect x="1050" y="380" width="380" height="340" rx="28" fill="#181010"/>
  <rect x="220" y="220" width="240" height="18" rx="9" fill="#ff3b3b" fill-opacity=".45"/>
  <path d="M240 610C240 520 312 448 402 448C492 448 564 520 564 610" stroke="#ff2a2a" stroke-width="14" stroke-linecap="round"/>
  <circle cx="320" cy="430" r="38" fill="#f5f5f5"/>
  <circle cx="404" cy="408" r="46" fill="#f5f5f5"/>
  <circle cx="488" cy="430" r="38" fill="#f5f5f5"/>
  <rect x="700" y="220" width="280" height="18" rx="9" fill="#ff3b3b" fill-opacity=".45"/>
  <rect x="700" y="264" width="360" height="16" rx="8" fill="#f5f5f5" fill-opacity=".85"/>
  <rect x="700" y="298" width="300" height="16" rx="8" fill="#a3a3a3" fill-opacity=".7"/>
  <circle cx="1320" cy="160" r="180" fill="#ff2a2a" fill-opacity=".15"/>
  <defs>
    <linearGradient id="g" x1="0" y1="0" x2="1600" y2="900">
      <stop stop-color="#140808"/>
      <stop offset="1" stop-color="#170505"/>
    </linearGradient>
  </defs>
</svg>
