<svg width="1600" height="900" viewBox="0 0 1600 900" fill="none" xmlns="http://www.w3.org/2000/svg">
  <rect width="1600" height="900" fill="#0A0A0A"/>
  <rect width="1600" height="900" fill="url(#g)"/>
  <rect x="120" y="96" width="1360" height="708" rx="32" fill="#110909" stroke="#ff3b3b" stroke-opacity=".25" stroke-width="2"/>
  <rect x="180" y="154" width="440" height="590" rx="28" fill="#171010"/>
  <rect x="670" y="154" width="750" height="250" rx="28" fill="#171010"/>
  <rect x="670" y="444" width="750" height="300" rx="28" fill="#171010"/>
  <rect x="236" y="224" width="180" height="180" rx="24" fill="#ff2a2a" fill-opacity=".18"/>
  <path d="M278 314L326 266L388 328" stroke="#f5f5f5" stroke-width="12" stroke-linecap="round" stroke-linejoin="round"/>
  <rect x="236" y="470" width="280" height="18" rx="9" fill="#ff3b3b" fill-opacity=".45"/>
  <rect x="236" y="510" width="220" height="16" rx="8" fill="#f5f5f5" fill-opacity=".85"/>
  <path d="M740 326L836 274L938 322L1048 230L1158 322L1268 192L1348 322" stroke="#ff2a2a" stroke-width="14" stroke-linecap="round" stroke-linejoin="round"/>
  <circle cx="210" cy="170" r="170" fill="#ff3b3b" fill-opacity=".14"/>
  <defs>
    <linearGradient id="g" x1="0" y1="0" x2="1600" y2="900">
      <stop stop-color="#130707"/>
      <stop offset="1" stop-color="#170606"/>
    </linearGradient>
  </defs>
</svg>
