<svg width="1600" height="900" viewBox="0 0 1600 900" fill="none" xmlns="http://www.w3.org/2000/svg">
  <rect width="1600" height="900" fill="#0A0A0A"/>
  <rect width="1600" height="900" fill="url(#g)"/>
  <rect x="110" y="94" width="1380" height="712" rx="32" fill="#120909" stroke="#ff3b3b" stroke-opacity=".25" stroke-width="2"/>
  <rect x="172" y="154" width="430" height="592" rx="28" fill="#181010"/>
  <rect x="650" y="154" width="780" height="184" rx="28" fill="#181010"/>
  <rect x="650" y="378" width="780" height="368" rx="28" fill="#181010"/>
  <circle cx="386" cy="308" r="94" fill="#ff2a2a" fill-opacity=".18"/>
  <circle cx="348" cy="286" r="10" fill="#f5f5f5"/>
  <circle cx="424" cy="286" r="10" fill="#f5f5f5"/>
  <path d="M344 336H428" stroke="#f5f5f5" stroke-width="12" stroke-linecap="round"/>
  <rect x="236" y="462" width="260" height="18" rx="9" fill="#ff3b3b" fill-opacity=".45"/>
  <rect x="236" y="502" width="220" height="16" rx="8" fill="#f5f5f5" fill-opacity=".85"/>
  <rect x="236" y="536" width="260" height="16" rx="8" fill="#a3a3a3" fill-opacity=".7"/>
  <rect x="714" y="224" width="300" height="18" rx="9" fill="#ff3b3b" fill-opacity=".45"/>
  <rect x="714" y="266" width="380" height="16" rx="8" fill="#f5f5f5" fill-opacity=".85"/>
  <circle cx="1316" cy="164" r="176" fill="#ff2a2a" fill-opacity=".14"/>
  <defs>
    <linearGradient id="g" x1="0" y1="0" x2="1600" y2="900">
      <stop stop-color="#130707"/>
      <stop offset="1" stop-color="#190606"/>
    </linearGradient>
  </defs>
</svg>
