<svg width="1600" height="900" viewBox="0 0 1600 900" fill="none" xmlns="http://www.w3.org/2000/svg">
  <rect width="1600" height="900" fill="#0A0A0A"/>
  <rect width="1600" height="900" fill="url(#g)"/>
  <rect x="116" y="98" width="1368" height="704" rx="32" fill="#110909" stroke="#ff3b3b" stroke-opacity=".25" stroke-width="2"/>
  <rect x="176" y="156" width="520" height="588" rx="28" fill="#170d0d"/>
  <rect x="736" y="156" width="688" height="256" rx="28" fill="#170d0d"/>
  <rect x="736" y="452" width="688" height="292" rx="28" fill="#170d0d"/>
  <rect x="240" y="226" width="260" height="18" rx="9" fill="#ff3b3b" fill-opacity=".45"/>
  <rect x="240" y="280" width="184" height="184" rx="24" fill="#ff2a2a" fill-opacity=".18"/>
  <rect x="240" y="502" width="380" height="120" rx="24" fill="#130a0a" stroke="#ff3b3b" stroke-opacity=".16"/>
  <rect x="800" y="226" width="280" height="18" rx="9" fill="#ff3b3b" fill-opacity=".45"/>
  <rect x="800" y="268" width="360" height="16" rx="8" fill="#f5f5f5" fill-opacity=".85"/>
  <path d="M860 624L950 554L1042 602L1140 514L1270 624" stroke="#ff2a2a" stroke-width="14" stroke-linecap="round" stroke-linejoin="round"/>
  <circle cx="1314" cy="166" r="180" fill="#ff2a2a" fill-opacity=".14"/>
  <defs>
    <linearGradient id="g" x1="0" y1="0" x2="1600" y2="900">
      <stop stop-color="#120707"/>
      <stop offset="1" stop-color="#190606"/>
    </linearGradient>
  </defs>
</svg>
