<svg width="1200" height="800" viewBox="0 0 1200 800" fill="none" xmlns="http://www.w3.org/2000/svg">
  <rect width="1200" height="800" fill="#0A0A0A"/>
  <rect width="1200" height="800" fill="url(#bg)"/>
  <circle cx="952" cy="184" r="190" fill="#FF2A2A" fill-opacity="0.16"/>
  <circle cx="188" cy="622" r="200" fill="#FF3B3B" fill-opacity="0.12"/>
  <rect x="124" y="110" width="952" height="580" rx="36" fill="#100808" stroke="#FF3B3B" stroke-opacity="0.2" stroke-width="2"/>
  <rect x="180" y="176" width="840" height="124" rx="24" fill="#160C0C" stroke="#FF2A2A" stroke-opacity="0.25"/>
  <text x="216" y="248" fill="#F5F5F5" font-family="Arial, sans-serif" font-size="54" font-weight="800">Smart India Hackathon</text>
  <rect x="180" y="342" width="386" height="262" rx="26" fill="#1A1010" stroke="#FF3B3B" stroke-opacity="0.28"/>
  <path d="M256 542L318 454L384 510L454 404L516 542" stroke="#FF2A2A" stroke-width="12" stroke-linecap="round" stroke-linejoin="round"/>
  <circle cx="318" cy="454" r="14" fill="#F5F5F5"/>
  <circle cx="384" cy="510" r="14" fill="#F5F5F5"/>
  <circle cx="454" cy="404" r="14" fill="#F5F5F5"/>
  <rect x="620" y="342" width="400" height="262" rx="26" fill="#1A1010" stroke="#FF3B3B" stroke-opacity="0.28"/>
  <rect x="664" y="388" width="310" height="20" rx="10" fill="#FF3B3B" fill-opacity="0.4"/>
  <rect x="664" y="434" width="250" height="16" rx="8" fill="#F5F5F5" fill-opacity="0.85"/>
  <rect x="664" y="468" width="284" height="16" rx="8" fill="#A3A3A3" fill-opacity="0.8"/>
  <rect x="664" y="502" width="236" height="16" rx="8" fill="#A3A3A3" fill-opacity="0.65"/>
  <rect x="664" y="546" width="152" height="30" rx="15" fill="#FF2A2A" fill-opacity="0.3"/>
  <defs>
    <linearGradient id="bg" x1="0" y1="0" x2="1200" y2="800" gradientUnits="userSpaceOnUse">
      <stop stop-color="#130707"/>
      <stop offset="0.5" stop-color="#0D0A0A"/>
      <stop offset="1" stop-color="#1A0606"/>
    </linearGradient>
  </defs>
</svg>
