<svg width="1600" height="900" viewBox="0 0 1600 900" fill="none" xmlns="http://www.w3.org/2000/svg">
  <rect width="1600" height="900" fill="#0A0A0A"/>
  <rect width="1600" height="900" fill="url(#g)"/>
  <rect x="116" y="94" width="1368" height="712" rx="32" fill="#110909" stroke="#ff3b3b" stroke-opacity=".25" stroke-width="2"/>
  <rect x="176" y="154" width="520" height="592" rx="28" fill="#170d0d"/>
  <rect x="736" y="154" width="688" height="256" rx="28" fill="#170d0d"/>
  <rect x="736" y="452" width="688" height="294" rx="28" fill="#170d0d"/>
  <rect x="240" y="226" width="260" height="18" rx="9" fill="#ff3b3b" fill-opacity=".45"/>
  <rect x="240" y="278" width="184" height="184" rx="24" fill="#ff2a2a" fill-opacity=".18"/>
  <circle cx="332" cy="370" r="42" stroke="#f5f5f5" stroke-width="10"/>
  <rect x="456" y="320" width="160" height="16" rx="8" fill="#f5f5f5" fill-opacity=".85"/>
  <path d="M800 336H1310" stroke="#ff2a2a" stroke-width="12" stroke-linecap="round"/>
  <path d="M858 628L946 558L1042 598L1148 520L1276 628" stroke="#ff2a2a" stroke-width="14" stroke-linecap="round" stroke-linejoin="round"/>
  <defs>
    <linearGradient id="g" x1="0" y1="0" x2="1600" y2="900">
      <stop stop-color="#120707"/>
      <stop offset="1" stop-color="#170606"/>
    </linearGradient>
  </defs>
</svg>
